<?xml version="1.0" encoding="utf-8"?>
<!-- Generator: Adobe Illustrator 24.2.0, SVG Export Plug-In . SVG Version: 6.00 Build 0)  -->
<svg version="1.1" baseProfile="tiny" id="Слой_1"
	 xmlns="http://www.w3.org/2000/svg" xmlns:xlink="http://www.w3.org/1999/xlink" x="0px" y="0px" viewBox="0 0 22 30"
	 overflow="visible" xml:space="preserve">
<path fill="#FFFFFF" d="M16.6,3.4h-2.2C14.4,1.5,12.8,0,11,0C9.1,0,7.5,1.5,7.5,3.4H5.3v4.4h11.2L16.6,3.4L16.6,3.4z"/>
<path fill-rule="evenodd" fill="#FFFFFF" d="M18.3,9.6V3.4h3.5V30H0V3.4h3.5v6.1H18.3z M3.7,20.1c0,4,3.3,7.3,7.3,7.3
	c4,0,7.3-3.3,7.3-7.3S15,12.8,11,12.8C6.9,12.8,3.7,16.1,3.7,20.1z"/>
<path fill-rule="evenodd" fill="#FFFFFF" d="M5.4,20.1c0-3.1,2.5-5.5,5.5-5.5c3.1,0,5.5,2.5,5.5,5.5c0,3.1-2.5,5.5-5.5,5.5
	C7.9,25.6,5.4,23.2,5.4,20.1z M7.1,20.8l2.7,2.7l4.9-4.9l-1.2-1.2L9.9,21l-1.5-1.5L7.1,20.8z"/>
</svg>
