<?xml version="1.0" encoding="utf-8"?>
<!-- Generator: Adobe Illustrator 24.2.0, SVG Export Plug-In . SVG Version: 6.00 Build 0)  -->
<svg version="1.1" baseProfile="tiny" id="Слой_1"
	 xmlns="http://www.w3.org/2000/svg" xmlns:xlink="http://www.w3.org/1999/xlink" x="0px" y="0px" viewBox="0 0 37 30"
	 overflow="visible" xml:space="preserve">
<path fill="#FCFCFC" d="M34.3,10.9h-7.4c-2.2,0-4,1.8-4,4V26c0,2.2,1.8,4,4,4h8.3l1.4-16.6C36.7,12,35.6,10.9,34.3,10.9z"/>
<path fill="#FCFCFC" d="M18.9,0h-1.8l-0.7,8.8c-0.2,2.5-2.3,4.4-4.8,4.4h-1.4v14.3h4.7c0,0,0,0.1,0,0.1c0,1.3,1,2.3,2.3,2.3h5.1
	c-0.9-1.1-1.5-2.5-1.5-4V14.8c0-1.9,0.8-3.5,2.1-4.6V4C22.9,1.8,21.1,0,18.9,0L18.9,0z"/>
<path fill="#FCFCFC" d="M0,11.8h8V29H0V11.8z"/>
</svg>
