<?xml version="1.0" encoding="utf-8"?>
<!-- Generator: Adobe Illustrator 24.2.0, SVG Export Plug-In . SVG Version: 6.00 Build 0)  -->
<svg version="1.1" baseProfile="tiny" id="Слой_1"
	 xmlns="http://www.w3.org/2000/svg" xmlns:xlink="http://www.w3.org/1999/xlink" x="0px" y="0px" viewBox="0 0 23 30"
	 overflow="visible" xml:space="preserve">
<path fill="#58BEBF" d="M15.8,0h6.8v7.5h-6.8V0z"/>
<path fill="#58BEBF" d="M0,0h6.8v7.5H0V0z"/>
<ellipse fill="#58BEBF" cx="11.6" cy="21" rx="4.1" ry="3.8"/>
<path fill-rule="evenodd" fill="#58BEBF" d="M2.3,21.4c0-4.8,4-8.6,9-8.6c5,0,9,3.9,9,8.6s-4,8.6-9,8.6C6.3,30,2.3,26.1,2.3,21.4z
	 M5.4,21.4c0,3.1,2.6,5.6,5.9,5.6c3.2,0,5.9-2.5,5.9-5.6s-2.6-5.6-5.9-5.6C8,15.8,5.4,18.3,5.4,21.4z"/>
<path fill="#58BEBF" d="M7.3,11.4c0.8-0.3,1.6-0.6,2.4-0.7L8.1,9H1.5l3.6,3.8C5.8,12.2,6.5,11.7,7.3,11.4z"/>
<path fill="#58BEBF" d="M12.8,10.7c0.8,0.1,1.6,0.4,2.4,0.7c0.8,0.4,1.6,0.8,2.2,1.4L21,9h-6.6C13.9,9.5,13.3,10.1,12.8,10.7z"/>
</svg>
