<svg width="22" height="30" viewBox="0 0 22 30" fill="none" xmlns="http://www.w3.org/2000/svg">
<path d="M16.5767 3.42322H14.3802C14.3802 1.53264 12.8475 0 10.9569 0C9.06636 0 7.53372 1.53264 7.53372 3.42322H5.33716V7.81148H16.5767V3.42322H16.5767Z" fill="#58BEBF"/>
<path fill-rule="evenodd" clip-rule="evenodd" d="M18.3346 9.56941V3.42334H21.8736V30.0001H0.0404053V3.42334H3.57941V9.56941H18.3346ZM3.6673 20.1039C3.6673 24.1234 6.93742 27.3936 10.957 27.3936C14.9766 27.3936 18.2467 24.1234 18.2467 20.1039C18.2467 16.0844 14.9765 12.8142 10.957 12.8142C6.93748 12.8142 3.6673 16.0843 3.6673 20.1039Z" fill="#58BEBF"/>
<path fill-rule="evenodd" clip-rule="evenodd" d="M5.42505 20.1036C5.42505 17.0534 7.90661 14.5718 10.9569 14.5718C14.0073 14.5718 16.4888 17.0534 16.4888 20.1036C16.4888 23.1539 14.0072 25.6355 10.9569 25.6355C7.90667 25.6355 5.42505 23.1539 5.42505 20.1036ZM7.12239 20.7647L9.85954 23.5018L14.7914 18.5699L13.5485 17.327L9.85954 21.0159L8.36534 19.5217L7.12239 20.7647Z" fill="#58BEBF"/>
</svg>
