<svg width="151" height="29" viewBox="0 0 151 29" fill="none" xmlns="http://www.w3.org/2000/svg">
<path fill-rule="evenodd" clip-rule="evenodd" d="M74.1712 0.544006V4.63361H69.4768V0.544006H74.1712ZM14.296 18.3424V22H0.644806V1.49441H5.13761V18.3424H14.296ZM27.6016 21.3088C26.4496 21.9232 25.1056 22.2304 23.5696 22.2304C21.9952 22.2304 20.632 21.9232 19.48 21.3088C18.328 20.6944 17.44 19.816 16.816 18.6736C16.192 17.5312 15.88 16.1824 15.88 14.6272C15.88 13.072 16.192 11.728 16.816 10.5952C17.44 9.46241 18.328 8.58401 19.48 7.96001C20.632 7.33601 21.9952 7.02401 23.5696 7.02401C25.1056 7.02401 26.4496 7.33601 27.6016 7.96001C28.7536 8.58401 29.6416 9.46241 30.2656 10.5952C30.8896 11.728 31.2016 13.072 31.2016 14.6272C31.2016 16.1824 30.8896 17.5312 30.2656 18.6736C29.6416 19.816 28.7536 20.6944 27.6016 21.3088ZM23.5696 18.9184C22.4752 18.9184 21.64 18.568 21.064 17.8672C20.488 17.1664 20.2 16.0864 20.2 14.6272C20.2 13.1872 20.4928 12.1168 21.0784 11.416C21.664 10.7152 22.4944 10.3648 23.5696 10.3648C24.6256 10.3648 25.4416 10.7152 26.0176 11.416C26.5936 12.1168 26.8816 13.1872 26.8816 14.6272C26.8816 16.0864 26.5936 17.1664 26.0176 17.8672C25.4416 18.568 24.6256 18.9184 23.5696 18.9184ZM46.768 26.6368C45.4336 27.8464 43.4704 28.4512 40.8784 28.4512C38.5744 28.4512 36.5584 28 34.8304 27.0976L35.4928 23.872C36.3568 24.3136 37.2304 24.64 38.1136 24.8512C38.9968 25.0624 39.8704 25.168 40.7344 25.168C41.9824 25.168 42.9136 24.88 43.528 24.304L43.655 24.1759C44.1847 23.6003 44.4496 22.7598 44.4496 21.6544L44.449 19.102L44.4302 19.1329C44.2374 19.426 44.0039 19.7097 43.7296 19.984C43.2496 20.464 42.6688 20.8528 41.9872 21.1504C41.3056 21.448 40.5712 21.5968 39.784 21.5968C38.5168 21.5968 37.3936 21.2944 36.4144 20.6896C35.4352 20.0848 34.6672 19.2352 34.1104 18.1408C33.5536 17.0464 33.2752 15.7696 33.2752 14.3104C33.2752 12.8512 33.5536 11.5792 34.1104 10.4944C34.6672 9.40961 35.4352 8.56001 36.4144 7.94561C37.3936 7.33121 38.5168 7.02401 39.784 7.02401C40.9744 7.02401 42.0256 7.31681 42.9376 7.90241L43.1595 8.05271C43.663 8.41251 44.0669 8.83601 44.3712 9.32321L44.449 9.45701L44.4496 7.39841H48.7696V21.3088C48.7696 23.6512 48.1024 25.4272 46.768 26.6368ZM41.0512 18.2848C39.9952 18.2848 39.1552 17.9296 38.5312 17.2192C37.9072 16.5088 37.5952 15.5392 37.5952 14.3104C37.5952 13.0816 37.9024 12.1168 38.5168 11.416C39.1312 10.7152 39.976 10.3648 41.0512 10.3648C42.1264 10.3648 42.9616 10.72 43.5568 11.4304C44.152 12.1408 44.4496 13.1008 44.4496 14.3104C44.4496 15.5584 44.1472 16.5328 43.5424 17.2336C42.9376 17.9344 42.1072 18.2848 41.0512 18.2848ZM63.256 21.3088C62.104 21.9232 60.76 22.2304 59.224 22.2304C57.6496 22.2304 56.2864 21.9232 55.1344 21.3088C53.9824 20.6944 53.0944 19.816 52.4704 18.6736C51.8464 17.5312 51.5344 16.1824 51.5344 14.6272C51.5344 13.072 51.8464 11.728 52.4704 10.5952C53.0944 9.46241 53.9824 8.58401 55.1344 7.96001C56.2864 7.33601 57.6496 7.02401 59.224 7.02401C60.76 7.02401 62.104 7.33601 63.256 7.96001C64.408 8.58401 65.296 9.46241 65.92 10.5952C66.544 11.728 66.856 13.072 66.856 14.6272C66.856 16.1824 66.544 17.5312 65.92 18.6736C65.296 19.816 64.408 20.6944 63.256 21.3088ZM59.224 18.9184C58.1296 18.9184 57.2944 18.568 56.7184 17.8672C56.1424 17.1664 55.8544 16.0864 55.8544 14.6272C55.8544 13.1872 56.1472 12.1168 56.7328 11.416C57.3184 10.7152 58.1488 10.3648 59.224 10.3648C60.28 10.3648 61.096 10.7152 61.672 11.416C62.248 12.1168 62.536 13.1872 62.536 14.6272C62.536 16.0864 62.248 17.1664 61.672 17.8672C61.096 18.568 60.28 18.9184 59.224 18.9184ZM73.9984 22V7.39841H69.6496V22H73.9984ZM81.889 19.88L81.8896 28.2208H77.5408V11.5744C77.5408 10.8832 77.5264 10.1872 77.4976 9.48641C77.4688 8.78561 77.4064 8.08961 77.3104 7.39841H81.4L81.676 9.86101L81.722 9.74801C82.0593 8.98801 82.6 8.36801 83.344 7.88801C84.2368 7.31201 85.2784 7.02401 86.4688 7.02401C87.736 7.02401 88.8544 7.34561 89.824 7.98881C90.7936 8.63201 91.5568 9.53441 92.1136 10.696C92.6704 11.8576 92.9488 13.1968 92.9488 14.7136C92.9488 16.2304 92.6704 17.5552 92.1136 18.688C91.5568 19.8208 90.7936 20.6944 89.824 21.3088C88.8544 21.9232 87.736 22.2304 86.4688 22.2304C85.2784 22.2304 84.2368 21.952 83.344 21.3952L83.1269 21.2514C82.6346 20.9051 82.2419 20.4837 81.9488 19.9872L81.889 19.88ZM85.2304 18.9184C84.136 18.9184 83.3008 18.5536 82.7248 17.824C82.1488 17.0944 81.8608 16.0384 81.8608 14.656C81.8608 13.2736 82.1488 12.2128 82.7248 11.4736C83.3008 10.7344 84.136 10.3648 85.2304 10.3648C86.2864 10.3648 87.1072 10.7488 87.6928 11.5168C88.2784 12.2848 88.5712 13.3504 88.5712 14.7136C88.5712 16.0768 88.2832 17.1184 87.7072 17.8384C87.1312 18.5584 86.3056 18.9184 85.2304 18.9184ZM105.923 21.0208C104.819 21.8272 103.298 22.2304 101.358 22.2304C98.5744 22.2304 96.376 21.6352 94.7632 20.4448L95.944 17.4208C96.712 17.9776 97.5712 18.4048 98.5216 18.7024C99.472 19 100.427 19.1488 101.387 19.1488C102.136 19.1488 102.712 19.0288 103.115 18.7888C103.518 18.5488 103.72 18.2176 103.72 17.7952C103.72 17.4304 103.576 17.1472 103.288 16.9456C103 16.744 102.491 16.5568 101.762 16.384L99.3712 15.808C97.9504 15.52 96.9088 15.04 96.2464 14.368C95.584 13.696 95.2528 12.8032 95.2528 11.6896C95.2528 10.7872 95.5168 9.98561 96.0448 9.28481C96.5728 8.58401 97.3072 8.03201 98.248 7.62881C99.1888 7.22561 100.283 7.02401 101.531 7.02401C102.587 7.02401 103.605 7.18241 104.584 7.49921C105.563 7.81601 106.456 8.26241 107.262 8.83841L106.053 11.7472C105.304 11.2288 104.541 10.8352 103.763 10.5664C102.986 10.2976 102.232 10.1632 101.502 10.1632C100.792 10.1632 100.235 10.288 99.832 10.5376C99.4288 10.7872 99.2272 11.1328 99.2272 11.5744C99.2272 11.9008 99.3472 12.16 99.5872 12.352C99.8272 12.544 100.254 12.7168 100.869 12.8704L103.317 13.4176C104.814 13.7632 105.899 14.2816 106.571 14.9728C107.243 15.664 107.579 16.5856 107.579 17.7376C107.579 19.12 107.027 20.2144 105.923 21.0208ZM115.614 22.2304C116.709 22.2304 117.664 21.9664 118.48 21.4384C119.073 21.0544 119.563 20.5409 119.948 19.898L119.963 19.871L119.963 22H124.197V7.39841H119.819V15.4624C119.819 16.48 119.541 17.296 118.984 17.9104C118.427 18.5248 117.707 18.832 116.824 18.832C116.037 18.832 115.456 18.616 115.082 18.184C114.707 17.752 114.52 17.0848 114.52 16.1824V7.39841H110.171V16.096C110.171 18.1504 110.622 19.6864 111.525 20.704C112.427 21.7216 113.79 22.2304 115.614 22.2304ZM132.059 13.9648V22H127.71V11.5744C127.71 10.8832 127.696 10.1872 127.667 9.48641C127.638 8.78561 127.576 8.08961 127.48 7.39841H131.57L131.815 9.61301L131.948 9.38144C132.327 8.75498 132.82 8.24277 133.427 7.84481C134.262 7.29761 135.266 7.02401 136.437 7.02401C137.762 7.02401 138.813 7.36481 139.59 8.04641L139.753 8.19783C140.123 8.56365 140.427 9.01708 140.665 9.55811L140.745 9.75501L140.841 9.59078C141.248 8.94083 141.786 8.39244 142.456 7.94561C143.378 7.33121 144.424 7.02401 145.595 7.02401C147.266 7.02401 148.504 7.53281 149.31 8.55041C150.117 9.56801 150.52 11.104 150.52 13.1584V22H146.171V13.3024C146.171 12.304 146.008 11.5744 145.682 11.1136C145.355 10.6528 144.818 10.4224 144.069 10.4224C143.205 10.4224 142.523 10.7344 142.024 11.3584C141.525 11.9824 141.275 12.8512 141.275 13.9648V22H136.926V13.3024C136.926 12.304 136.763 11.5744 136.437 11.1136C136.11 10.6528 135.582 10.4224 134.853 10.4224C133.97 10.4224 133.283 10.7344 132.794 11.3584C132.304 11.9824 132.059 12.8512 132.059 13.9648Z" fill="#D8D8D8"/>
</svg>
